# xmcd
#
# Track frame offsets: 
#        150
#        19770
#        42797
#        64082
#        92715
#
# Disc length: 1490 seconds
#
# Revision: 1
# Processed by: cddbd v1.5.2PL0 Copyright (c) Steve Scherf et al.
# Submitted via: ExactAudioCopyFreeDBPlugin 1.0
#
DISCID=3605d005
DTITLE=Berksan - Öpüşelim mi?
DYEAR=2006
DGENRE=Turkish Pop
TTITLE0=Öpüşelim mi?
TTITLE1=Git
TTITLE2=Öpüşelim mi? (Radio Remix)
TTITLE3=Öpüşelim mi? (Club Remix)
TTITLE4=Git (Relax)
EXTD=
EXTT0=
EXTT1=
EXTT2=
EXTT3=
EXTT4=
PLAYORDER=
